Coordinates
version=1
nRows=9
nColumns=24
inDegrees=yes

Units are S.I. units (second, meters, Newtons, ...)
Angles are in degrees.

endheader
time	pelvis_tilt	pelvis_list	pelvis_rotation	pelvis_tx	pelvis_ty	pelvis_tz	hip_flexion_r	hip_adduction_r	hip_rotation_r	knee_angle_r	ankle_angle_r	subtalar_angle_r	mtp_angle_r	hip_flexion_l	hip_adduction_l	hip_rotation_l	knee_angle_l	ankle_angle_l	subtalar_angle_l	mtp_angle_l	lumbar_extension	lumbar_bending	lumbar_rotation
      7.34000000	     -3.41278079	      6.83189170	     14.94883747	     -1.48469786	      0.64987061	      0.13151504	     25.21773451	     -9.99215926	    -12.76461593	     -3.01390504	      0.33311756	     -8.62418657	      0.00000000	    -15.59513102	      5.82417503	     14.94034191	    -15.14239082	     19.50573262	      2.86281981	      0.00000000	    -12.68132002	    -11.59718781	    -12.51758950
      7.35000000	     -3.28785351	      6.23094147	     14.89528508	     -1.47274367	      0.64955033	      0.13272791	     25.36795063	     -9.20623546	    -11.77615016	     -5.09423847	     -1.98197749	    -12.17360826	      0.00000000	    -15.73354557	      4.94681637	     14.72114031	    -16.56178740	     18.41895556	      3.07181114	      0.00000000	    -12.34031022	    -10.97270657	    -12.22138675
      7.36000000	     -3.14355610	      5.54739786	     14.58689030	     -1.46078815	      0.64954673	      0.13422048	     25.51435947	     -8.16107621	    -10.28100980	     -6.93687931	     -4.30499510	    -15.50253545	      0.00000000	    -15.71915444	      4.09777285	     14.25952951	    -18.18197752	     16.87045546	      3.07088616	      0.00000000	    -11.97437393	    -10.29438348	    -11.68700559
      7.37000000	     -2.90828993	      4.74913964	     14.09064841	     -1.44884621	      0.64994673	      0.13591901	     25.55937587	     -6.83717527	     -8.51180202	     -8.64522361	     -6.13017672	    -18.33550330	      0.00000000	    -15.55644146	      3.21053807	     13.51526197	    -20.11061298	     14.90394657	      2.99519431	      0.00000000	    -11.66949500	     -9.47278639	    -11.03827109
      7.38000000	     -2.62852601	      3.90904812	     13.46639582	     -1.43695640	      0.65071904	      0.13776894	     25.50419961	     -5.34214420	     -6.64805087	    -10.28868745	     -7.12116532	    -20.56784681	      0.00000000	    -15.17035591	      2.36109212	     12.56405578	    -22.40545120	     12.37322396	      2.72937045	      0.00000000	    -11.41874279	     -8.59738307	    -10.36383370
      7.39000000	     -2.31501632	      3.08613744	     12.79304737	     -1.42515124	      0.65185799	      0.13968120	     25.28156060	     -3.78256504	     -4.90520843	    -11.82499790	     -7.31930021	    -22.27913036	      0.00000000	    -14.53903486	      1.58601204	     11.52068362	    -25.06149437	      9.13422311	      2.19520943	      0.00000000	    -11.23791914	     -7.71699181	     -9.79578458
      7.40000000	     -2.01614403	      2.32401267	     12.16393296	     -1.41352419	      0.65331714	      0.14157377	     24.84312423	     -2.26923238	     -3.40724306	    -13.08191970	     -6.93062114	    -23.58070037	      0.00000000	    -13.58160749	      0.90185594	     10.49098196	    -28.08067718	      5.15800496	      1.41959145	      0.00000000	    -11.12225848	     -6.87878764	     -9.41423910
      7.41000000	     -1.74848769	      1.64153769	     11.64087452	     -1.40217411	      0.65505867	      0.14339319	     24.14838959	     -0.86900083	     -2.16410656	    -13.91167231	     -6.26509259	    -24.64159047	      0.00000000	    -12.26614131	      0.30664893	      9.59110138	    -31.43144215	      0.51856787	      0.43616333	      0.00000000	    -11.07537812	     -6.10501475	     -9.25441026
      7.42000000	     -1.52792227	      1.03774900	     11.27780051	     -1.39120350	      0.65701823	      0.14507120	     23.21919110	      0.35952362	     -1.27118679	    -14.25474727	     -5.48850214	    -25.42138659	      0.00000000	    -10.57509391	     -0.20397755	      8.92244105	    -35.07113411	     -4.54901522	     -0.75423888	      0.00000000	    -11.09655526	     -5.39323630	     -9.31048806
